<?xml version="1.0" standalone="no"?><!DOCTYPE svg PUBLIC "-//W3C//DTD SVG 1.1//EN" "http://www.w3.org/Graphics/SVG/1.1/DTD/svg11.dtd"><svg t="1710071983848" class="icon" viewBox="0 0 1025 1024" version="1.1" xmlns="http://www.w3.org/2000/svg" p-id="4870" xmlns:xlink="http://www.w3.org/1999/xlink" width="200.1953125" height="200"><path d="M149.587831 490.942165h341.927329v205.947391c0 11.797908 9.568925 21.365833 21.371833 21.365833 11.803908 0 21.371833-9.567925 21.371833-21.365833V490.942165h341.927329v227.306224c0 11.803908 9.565925 21.370833 21.366833 21.370833 11.803908 0 21.371833-9.566925 21.371833-21.370833V483.376224c0-19.425848-15.749877-35.176725-35.176725-35.176726H534.255826v-93.317271c0-11.804908-9.566925-21.371833-21.371833-21.371833-11.802908 0-21.371833 9.566925-21.371833 21.371833v93.319271H142.02089c-19.424848 0-35.170725 15.748877-35.170725 35.175726v234.872165c0 11.803908 9.566925 21.371833 21.365833 21.371833 11.803908 0 21.371833-9.567925 21.371833-21.371833V490.942165z m85.483333 283.112788H21.371833C9.555925 774.053953 0 783.627878 0 795.425786v207.194381C0 1014.413075 9.555925 1023.992 21.371833 1023.992h213.699331c11.792908 0 21.371833-9.578925 21.371833-21.371833V795.425786c0-11.797908-9.578925-21.370833-21.371833-21.370833z m384.667994 0H406.036828c-11.809908 0-21.377833 9.572925-21.377833 21.370833v207.194381c0 11.792908 9.567925 21.371833 21.377833 21.371833h213.70233c11.789908 0 21.374833-9.578925 21.374833-21.371833V795.425786c0-11.797908-9.584925-21.370833-21.374833-21.370833z m384.670995 0H790.699823c-11.810908 0-21.370833 9.572925-21.370833 21.370833v207.194381c0 11.792908 9.560925 21.371833 21.370833 21.371833h213.71033c11.783908 0 21.362833-9.578925 21.362833-21.371833V795.425786c0-11.797908-9.578925-21.370833-21.362833-21.370833zM341.923329 298.611667h341.927328c11.792908 0 21.371833-9.567925 21.371833-21.369833V21.382833C705.22249 9.567925 695.642565 0 683.850657 0h-341.927328c-11.809908 0-21.371833 9.568925-21.371833 21.382833v255.858001c0 11.802908 9.561925 21.369833 21.371833 21.369833z m0 0" p-id="4871"></path></svg>