<?xml version="1.0" standalone="no"?><!DOCTYPE svg PUBLIC "-//W3C//DTD SVG 1.1//EN" "http://www.w3.org/Graphics/SVG/1.1/DTD/svg11.dtd"><svg t="1707049132168" class="icon" viewBox="0 0 1027 1024" version="1.1" xmlns="http://www.w3.org/2000/svg" p-id="11419" xmlns:xlink="http://www.w3.org/1999/xlink" width="200.5859375" height="200"><path d="M394.971429 475.428571H80.457143C36.571429 475.428571 0 438.857143 0 394.971429V80.457143C0 36.571429 36.571429 0 80.457143 0h314.514286C438.857143 0 475.428571 36.571429 475.428571 80.457143v314.514286c0 43.885714-36.571429 80.457143-80.457142 80.457142zM394.971429 1024H80.457143C36.571429 1024 0 987.428571 0 943.542857V629.028571c0-43.885714 36.571429-80.457143 80.457143-80.457142h314.514286c43.885714 0 80.457143 36.571429 80.457142 80.457142v314.514286c0 43.885714-36.571429 80.457143-80.457142 80.457143zM980.114286 475.428571H592.457143c-21.942857 0-43.885714-21.942857-43.885714-43.885714V336.457143c0-21.942857 21.942857-43.885714 43.885714-43.885714h387.657143c21.942857 0 43.885714 21.942857 43.885714 43.885714v95.085714c0 21.942857-21.942857 43.885714-43.885714 43.885714zM980.114286 182.857143H592.457143c-21.942857 0-43.885714-21.942857-43.885714-43.885714V43.885714c0-21.942857 21.942857-43.885714 43.885714-43.885714h387.657143c21.942857 0 43.885714 21.942857 43.885714 43.885714v95.085715c0 21.942857-21.942857 43.885714-43.885714 43.885714zM972.8 804.571429v-14.628572-14.628571l36.571429-36.571429c14.628571-14.628571 14.628571-29.257143 14.628571-43.885714l-36.571429-58.514286c-7.314286-14.628571-21.942857-14.628571-36.571428-7.314286l-51.2 14.628572c-7.314286-7.314286-21.942857-14.628571-29.257143-14.628572l-14.628571-51.2c0-14.628571-7.314286-21.942857-21.942858-21.942857h-73.142857c-14.628571 0-21.942857 7.314286-21.942857 21.942857l-29.257143 43.885715c-14.628571 7.314286-21.942857 14.628571-29.257143 21.942857l-58.514285-14.628572c-14.628571-7.314286-29.257143 0-36.571429 7.314286l-36.571428 58.514286c-7.314286 14.628571 0 29.257143 7.314285 29.257143l36.571429 36.571428v29.257143l-36.571429 36.571429c-14.628571 7.314286-14.628571 21.942857-7.314285 29.257143l36.571428 58.514285c7.314286 36.571429 29.257143 36.571429 36.571429 29.257143l51.2-14.628571c7.314286 7.314286 21.942857 14.628571 29.257143 14.628571l14.628571 51.2c0 14.628571 7.314286 21.942857 21.942857 21.942857h73.142857c14.628571 0 21.942857-7.314286 21.942857-21.942857l14.628572-51.2c14.628571-7.314286 21.942857-7.314286 29.257143-14.628571l51.2 14.628571c14.628571 7.314286 29.257143 0 36.571428-7.314286l58.514286-58.514285c7.314286-14.628571 0-29.257143-7.314286-29.257143l-43.885714-43.885714z m-182.857143 65.828571c-51.2 0-87.771429-36.571429-87.771428-80.457143 0-43.885714 36.571429-80.457143 87.771428-80.457143s87.771429 36.571429 87.771429 80.457143c-7.314286 43.885714-43.885714 80.457143-87.771429 80.457143z" p-id="11420"></path></svg>